HIERARCHY
ROOT Hips
{
	OFFSET	0.00	0.00	0.00
	CHANNELS 6 Xposition Yposition Zposition Zrotation Xrotation Yrotation
	JOINT LeftUpLeg
	{
		OFFSET	 0.126116	-0.014019	-0.065224
		CHANNELS 3 Zrotation Xrotation Yrotation
		JOINT LeftLeg
		{
			OFFSET	 0.000000	 0.000000	 0.569914
			CHANNELS 3 Zrotation Xrotation Yrotation
			JOINT LeftFoot
			{
				OFFSET	 0.000000	 0.000000	 0.544423
				CHANNELS 3 Zrotation Xrotation Yrotation
				JOINT LeftToeBase
				{
					OFFSET	 0.000000	 0.000000	 0.207117
					CHANNELS 3 Zrotation Xrotation Yrotation
					End Site
					{
						OFFSET	 0.000000	 0.000000	 0.207117
					}
				}
			}
		}
	}
	JOINT RightUpLeg
	{
		OFFSET	-0.124023	-0.008373	-0.065224
		CHANNELS 3 Zrotation Xrotation Yrotation
		JOINT RightLeg
		{
			OFFSET	 0.000000	 0.000000	 0.570047
			CHANNELS 3 Zrotation Xrotation Yrotation
			JOINT RightFoot
			{
				OFFSET	 0.000000	 0.000000	 0.544354
				CHANNELS 3 Zrotation Xrotation Yrotation
				JOINT RightToeBase
				{
					OFFSET	 0.000000	 0.000000	 0.207540
					CHANNELS 3 Zrotation Xrotation Yrotation
					End Site
					{
						OFFSET	 0.000000	 0.000000	 0.207540
					}
				}
			}
		}
	}
	JOINT Spine
	{
		OFFSET	 0.000184	-0.007763	 0.117403
		CHANNELS 3 Zrotation Xrotation Yrotation
		JOINT Spine1
		{
			OFFSET	 0.000000	 0.000000	 0.137269
			CHANNELS 3 Zrotation Xrotation Yrotation
			JOINT Spine2
			{
				OFFSET	 0.000000	 0.000000	 0.156879
				CHANNELS 3 Zrotation Xrotation Yrotation
				JOINT LeftShoulder
				{
					OFFSET	 0.080501	-0.002496	 0.160144
					CHANNELS 3 Zrotation Xrotation Yrotation
					JOINT LeftArm
					{
						OFFSET	 0.000000	 0.000000	 0.164363
						CHANNELS 3 Zrotation Xrotation Yrotation
						JOINT LeftForeArm
						{
							OFFSET	 0.000000	 0.000000	 0.364576
							CHANNELS 3 Zrotation Xrotation Yrotation
							JOINT LeftHand
							{
								OFFSET	 0.000000	 0.000000	 0.360812
								CHANNELS 3 Zrotation Xrotation Yrotation
								JOINT LeftHandIndex1
								{
									OFFSET	 0.000000	 0.000000	 0.086006
									CHANNELS 3 Zrotation Xrotation Yrotation
									JOINT LeftHandIndex2
									{
										OFFSET	 0.000000	 0.000000	 0.047236
										CHANNELS 3 Zrotation Xrotation Yrotation
										JOINT LeftHandIndex3
										{
											OFFSET	-0.004284	-0.000551	 0.038166
											CHANNELS 3 Zrotation Xrotation Yrotation
											End Site
											{
												OFFSET	-0.004284	-0.000551	 0.038166
											}
										}
									}
								}
							}
						}
					}
				}
				JOINT Neck
				{
					OFFSET	 0.000000	 0.000000	 0.176489
					CHANNELS 3 Zrotation Xrotation Yrotation
					JOINT Head
					{
						OFFSET	 0.000000	-0.001747	 0.077940
						CHANNELS 3 Zrotation Xrotation Yrotation
						End Site
						{
							OFFSET	 0.000000	-0.001747	 0.077940
						}
					}
				}
				JOINT RightShoulder
				{
					OFFSET	-0.080363	 0.000306	 0.159706
					CHANNELS 3 Zrotation Xrotation Yrotation
					JOINT RightArm
					{
						OFFSET	 0.000000	 0.000000	 0.164196
						CHANNELS 3 Zrotation Xrotation Yrotation
						JOINT RightForeArm
						{
							OFFSET	 0.000000	 0.000000	 0.365611
							CHANNELS 3 Zrotation Xrotation Yrotation
							JOINT RightHand
							{
								OFFSET	 0.000000	 0.000000	 0.360648
								CHANNELS 3 Zrotation Xrotation Yrotation
								JOINT RightHandIndex1
								{
									OFFSET	 0.000000	 0.000000	 0.069977
									CHANNELS 3 Zrotation Xrotation Yrotation
									JOINT RightHandIndex2
									{
										OFFSET	 0.000000	 0.000000	 0.052305
										CHANNELS 3 Zrotation Xrotation Yrotation
										JOINT RightHandIndex3
										{
											OFFSET	 0.009002	-0.000782	 0.042196
											CHANNELS 3 Zrotation Xrotation Yrotation
											End Site
											{
												OFFSET	 0.009002	-0.000782	 0.042196
											}
										}
									}
								}
							}
						}
					}
				}
			}
		}
	}
}
MOTION
Frames:    12
Frame Time: 0.03333334
 6.626024	 6.238874	 0.877814	 175.599700	-0.000008	-0.000005	 4.117190	-1.743456	 179.873500	 3.144682	-11.594540	 1.749894	 4.431011	 71.402240	 1.145402	-2.385833	 28.452760	 0.000004	-4.119452	-2.154259	-179.893100	-3.138409	-11.963990	-1.790670	-4.423576	 71.426400	-1.178366	 2.384659	 28.388700	-0.000001	-2.085308	 2.725771	 0.070518	-3.467146	-1.749285	-0.281997	-4.161980	-2.096914	-0.351107	-91.776180	 78.527400	-180.000000	 12.108080	-5.220968	-1.016091	-4.393909	-0.889008	-0.368789	-18.166120	-0.205515	-4.068527	-3.812334	 37.924440	-2.927599	-2.450526	 36.184240	 0.754587	-1.378229	 35.397820	-2.634230	 0.000023	-3.783169	-0.089619	-1.024028	 1.223021	 0.010932	 89.782120	 78.203870	 180.000000	-12.512960	-5.961348	 1.072667	 4.635289	-0.427205	 0.526682	 18.480980	-1.326589	 8.278493	 6.437017	 35.671460	-0.771858	 2.830251	 35.756010	-7.813440	-2.350882	 35.473990	 5.254307
 6.629130	 6.232491	 0.874412	-93.599090	 3.991804	-0.776175	 9.879056	 17.130470	-176.316100	-6.085618	-11.623900	 1.540220	-19.586220	 89.238430	 23.064250	-2.297530	 40.047380	-0.276898	 4.075255	-45.833930	 179.525600	-0.833602	-43.522030	 3.148252	-177.296500	 83.478150	-178.616900	 2.404944	 21.342090	-0.146336	-4.100244	 2.153853	 2.745081	-6.211142	-5.184683	 0.708352	-7.117425	-9.042884	-1.658647	-91.776180	 78.527400	 180.000000	 41.457740	 62.054650	-56.678260	-6.748099	-4.582569	-27.854270	 4.749523	-2.104594	-5.366016	-3.812334	 37.924440	-2.927599	-2.450526	 36.184240	 0.754587	-1.378229	 35.397820	-2.634230	-0.154406	 4.732305	-2.342453	-1.638078	-23.121080	-3.242776	 89.782090	 78.203830	-180.000000	-31.377460	 72.893170	 35.456200	 3.906213	-6.578572	 20.224400	-14.236370	-3.278380	 9.542419	 6.437017	 35.671460	-0.771858	 2.830251	 35.756010	-7.813440	-2.350882	 35.473990	 5.254307
 6.610474	 6.232996	 0.869633	-93.127380	 4.066486	-0.985452	 9.561839	 17.882430	-176.278300	-5.847522	-11.624660	 1.534664	-12.799240	 89.088930	 16.245740	-2.282645	 41.298880	-0.311016	 4.383957	-45.791360	-179.952400	-0.373188	-42.593390	 3.504441	-176.570100	 84.171460	-178.852500	 2.394974	 25.676420	-0.057672	-4.194906	 2.092940	 2.747002	-6.319732	-5.262207	 0.642434	-7.164863	-9.052183	-1.702539	-91.776180	 78.527400	 180.000000	 42.184930	 62.173790	-57.467390	-6.489194	-4.588433	-27.017150	 4.978566	-2.111999	-5.364062	-3.812334	 37.924440	-2.927599	-2.450526	 36.184240	 0.754587	-1.378229	 35.397820	-2.634230	-0.233968	 4.962477	-2.317830	-1.707861	-23.466120	-3.272185	 89.782090	 78.203890	-180.000000	-30.556290	 73.104640	 34.207500	 3.894676	-6.508358	 19.826020	-14.350930	-3.281251	 9.540283	 6.437017	 35.671460	-0.771858	 2.830251	 35.756010	-7.813440	-2.350882	 35.473990	 5.254307
 6.590567	 6.233928	 0.869168	-92.683830	 4.148213	-1.148489	 9.284249	 18.676160	-176.340600	-5.578586	-11.624650	 1.534993	-7.122972	 88.859450	 10.570120	-2.267606	 42.464990	-0.343808	 4.652972	-45.609840	-179.490700	-0.039060	-42.143460	 3.796567	-176.039600	 84.940880	-179.027500	 2.383395	 28.670000	 0.006095	-4.300042	 1.996698	 2.705369	-6.434659	-5.303627	 0.564462	-7.230538	-9.041649	-1.744882	-91.776180	 78.527400	-180.000000	 42.914040	 62.418120	-58.212220	-6.309433	-4.583524	-26.098940	 5.221785	-2.120650	-5.361633	-3.812334	 37.924440	-2.927599	-2.450526	 36.184240	 0.754587	-1.378229	 35.397820	-2.634230	-0.318777	 5.109346	-2.301638	-1.774599	-23.661970	-3.277176	 89.782120	 78.203870	 180.000000	-30.116230	 73.302890	 33.452690	 3.837278	-6.449773	 19.455470	-14.480660	-3.286395	 9.536649	 6.437017	 35.671460	-0.771858	 2.830251	 35.756010	-7.813440	-2.350882	 35.473990	 5.254307
 6.569550	 6.235227	 0.869398	-92.310590	 4.237916	-1.264962	 9.042071	 19.503920	-176.487900	-5.279533	-11.623870	 1.540988	-2.452214	 88.484310	 5.933746	-2.249896	 43.731270	-0.380610	 4.893798	-45.355850	-179.124700	 0.247715	-42.100140	 4.090775	-175.484300	 85.716270	-179.290600	 2.376326	 30.111050	 0.037709	-4.396017	 1.898384	 2.615949	-6.530811	-5.352161	 0.471761	-7.264372	-9.009176	-1.780944	-91.776180	 78.527400	 180.000000	 43.596570	 62.792890	-58.814880	-6.208689	-4.568305	-25.127230	 5.475779	-2.130635	-5.358704	-3.812334	 37.924440	-2.927599	-2.450526	 36.184240	 0.754587	-1.378229	 35.397820	-2.634230	-0.402137	 5.199970	-2.290164	-1.836235	-23.741770	-3.253417	 89.782120	 78.203870	 180.000000	-29.517490	 73.557370	 32.583740	 3.865011	-6.399863	 19.112970	-14.617080	-3.292335	 9.531995	 6.437017	 35.671460	-0.771858	 2.830251	 35.756010	-7.813440	-2.350882	 35.473990	 5.254307
 6.547136	 6.236840	 0.867751	-91.949730	 4.347983	-1.362447	 8.829036	 20.368670	-176.709600	-4.946650	-11.622340	 1.552688	 0.916602	 87.889280	 2.637738	-2.226899	 45.233030	-0.426021	 5.133286	-44.979610	-178.785100	 0.579715	-42.401150	 4.460760	-175.577700	 86.523630	-178.909100	 2.376584	 30.062500	 0.036632	-4.500768	 1.760570	 2.495294	-6.628681	-5.421022	 0.361701	-7.297289	-8.981387	-1.819020	-91.776180	 78.527380	-180.000000	 44.246330	 63.289620	-59.314500	-6.187756	-4.543200	-24.115380	 5.740539	-2.142983	-5.354864	-3.812334	 37.924440	-2.927599	-2.450526	 36.184240	 0.754587	-1.378229	 35.397820	-2.634230	-0.486984	 5.173975	-2.260792	-1.889403	-23.696660	-3.190279	 89.782090	 78.203830	-180.000000	-28.883110	 73.828010	 31.685580	 3.914066	-6.355480	 18.795160	-14.753880	-3.298569	 9.526972	 6.437017	 35.671460	-0.771858	 2.830251	 35.756010	-7.813440	-2.350882	 35.473990	 5.254307
 6.521440	 6.238869	 0.866544	-91.591050	 4.472883	-1.451766	 8.629694	 21.336470	-177.023600	-4.547466	-11.619780	 1.571926	 3.141980	 86.907500	 0.542182	-2.194375	 47.132770	-0.486561	 5.323088	-44.449850	-178.481900	 1.227740	-43.044980	 5.076457	-175.145100	 87.622250	-178.881000	 2.381220	 29.136700	 0.016262	-4.623402	 1.596989	 2.317492	-6.726854	-5.521457	 0.242187	-7.299486	-8.970077	-1.866366	-91.776180	 78.527400	-180.000000	 44.822620	 63.984150	-59.568610	-6.259747	-4.506457	-23.005940	 6.035523	-2.159200	-5.349623	-3.812334	 37.924440	-2.927599	-2.450526	 36.184240	 0.754587	-1.378229	 35.397820	-2.634230	-0.578090	 5.066021	-2.214526	-1.937985	-23.545460	-3.082244	 89.782140	 78.203830	 180.000000	-28.133410	 74.128700	 30.642840	 3.990584	-6.311349	 18.481460	-14.892780	-3.305132	 9.521603	 6.437017	 35.671460	-0.771858	 2.830251	 35.756010	-7.813440	-2.350882	 35.473990	 5.254307
 6.497201	 6.241037	 0.866319	-91.310920	 4.517828	-1.490735	 8.494761	 22.219340	-177.397900	-4.155416	-11.616640	 1.595198	 4.247761	 85.660400	-0.395239	-2.159178	 48.954030	-0.548267	 5.240391	-43.914680	-178.487300	 2.456367	-43.829480	 6.005700	-174.629700	 88.949100	-178.688200	 2.380204	 29.346230	 0.020847	-4.738139	 1.455059	 2.073386	-6.798048	-5.635255	 0.138693	-7.260263	-8.990879	-1.911780	-91.776180	 78.527400	-180.000000	 45.166390	 64.751270	-59.454270	-6.412595	-4.467180	-22.024540	 6.304430	-2.175275	-5.344248	-3.812334	 37.924440	-2.927599	-2.450526	 36.184240	 0.754587	-1.378229	 35.397820	-2.634230	-0.660046	 4.945335	-2.161158	-1.979080	-23.352900	-2.965582	 89.782120	 78.203870	 180.000000	-27.381380	 74.395600	 29.606950	 4.079248	-6.273153	 18.228610	-15.000510	-3.310322	 9.517380	 6.437017	 35.671460	-0.771858	 2.830251	 35.756010	-7.813440	-2.350882	 35.473990	 5.254307
 6.472906	 6.243284	 0.866764	-91.106250	 4.482037	-1.456916	 8.448392	 23.076500	-177.854700	-3.758197	-11.612030	 1.628939	 4.826407	 84.058360	-0.728865	-2.121105	 50.706730	-0.611558	 4.874326	-43.375370	-178.731000	 4.185265	-44.688470	 7.185128	 7.207280	 89.425960	 0.342853	 2.374534	 30.447110	 0.045173	-4.822608	 1.326065	 1.733125	-6.826260	-5.753189	 0.031520	-7.209495	-9.043876	-1.934739	-91.776170	 78.527420	-180.000000	 45.323920	 65.605060	-59.052880	-6.643250	-4.426345	-21.116340	 6.564206	-2.191345	-5.338593	-3.812334	 37.924440	-2.927599	-2.450526	 36.184240	 0.754587	-1.378229	 35.397820	-2.634230	-0.743444	 4.850523	-2.098945	-2.024150	-23.159740	-2.835449	 89.782120	 78.203870	 180.000000	-26.564910	 74.640800	 28.485450	 4.182240	-6.235834	 18.012500	-15.081260	-3.314246	 9.514325	 6.437017	 35.671460	-0.771858	 2.830251	 35.756010	-7.813440	-2.350882	 35.473990	 5.254307
 6.446165	 6.245786	 0.867970	-90.966280	 4.431687	-1.372018	 8.499540	 23.990780	-178.387700	-3.389801	-11.606260	 1.669838	 5.069849	 81.841560	-0.646506	-2.083959	 52.241370	-0.670560	 4.362220	-42.701270	-179.095200	 5.807633	-45.569670	 8.249310	 7.422010	 87.879100	 0.816365	 2.370334	 31.193970	 0.061911	-4.846062	 1.155393	 1.321902	-6.795640	-5.873850	-0.097496	-7.174161	-9.113651	-1.915273	-91.776180	 78.527400	-180.000000	 45.270650	 66.617730	-58.311020	-7.015852	-4.371222	-20.223810	 6.800888	-2.208020	-5.332478	-3.812334	 37.924440	-2.927599	-2.450526	 36.184240	 0.754587	-1.378229	 35.397820	-2.634230	-0.837883	 4.804939	-2.021495	-2.063263	-23.016130	-2.658451	 89.782140	 78.203830	 180.000000	-25.638140	 74.877960	 27.212310	 4.303212	-6.195936	 17.814550	-15.140150	-3.317048	 9.512141	 6.437017	 35.671460	-0.771858	 2.830251	 35.756010	-7.813440	-2.350882	 35.473990	 5.254307
 6.419581	 6.248459	 0.869631	-90.893200	 4.378536	-1.318181	 8.593199	 24.882610	-178.840300	-3.174400	-11.602480	 1.696018	 4.982373	 79.091780	-0.254037	-2.060971	 53.117700	-0.705941	 3.940761	-42.120570	-179.424500	 6.500221	-46.420970	 8.690143	 5.064342	 86.922480	 3.320716	 2.371656	 30.963730	 0.056732	-4.776851	 0.913497	 1.003890	-6.701144	-5.967061	-0.221454	-7.180359	-9.144352	-1.842864	-91.776180	 78.527380	-180.000000	 44.951690	 67.688740	-57.253770	-7.543036	-4.299519	-19.459250	 6.950541	-2.222844	-5.327080	-3.812334	 37.924440	-2.927599	-2.450526	 36.184240	 0.754587	-1.378229	 35.397820	-2.634230	-0.915677	 4.771491	-1.945063	-2.082429	-22.888310	-2.484842	 89.782070	 78.203930	-180.000000	-24.947150	 75.081120	 26.266160	 4.397676	-6.165697	 17.652020	-15.197000	-3.319860	 9.510286	 6.437017	 35.671460	-0.771858	 2.830251	 35.756010	-7.813440	-2.350882	 35.473990	 5.254307
 6.389613	 6.251889	 0.871992	-90.839420	 4.329917	-1.323655	 8.752727	 25.823210	-179.278600	-3.134618	-11.601540	 1.702469	 4.598983	 75.369550	 0.431133	-2.060490	 53.135430	-0.706671	 3.643957	-41.432780	-179.817200	 6.436324	-47.307900	 8.651542	 4.861053	 86.174440	 3.188981	 2.373541	 30.628290	 0.049219	-4.624419	 0.520261	 0.783072	-6.551039	-6.038334	-0.323976	-7.223920	-9.116811	-1.725332	-91.776180	 78.527400	 180.000000	 44.264740	 68.891790	-55.634510	-8.247466	-4.204770	-18.772120	 7.005493	-2.236151	-5.322612	-3.812334	 37.924440	-2.927599	-2.450526	 36.184240	 0.754587	-1.378229	 35.397820	-2.634230	-0.964452	 4.736708	-1.892859	-2.082078	-22.704950	-2.325428	 89.782110	 78.203870	 180.000000	-24.450670	 75.265800	 25.575870	 4.462824	-6.143233	 17.509190	-15.260350	-3.323269	 9.507774	 6.437017	 35.671460	-0.771858	 2.830251	 35.756010	-7.813440	-2.350882	 35.473990	 5.254307
